<?xml version="1.0" encoding="utf-8"?>
<!-- Generator: Adobe Illustrator 24.1.2, SVG Export Plug-In . SVG Version: 6.00 Build 0)  -->
<svg version="1.1" id="圖層_1" xmlns="http://www.w3.org/2000/svg" xmlns:xlink="http://www.w3.org/1999/xlink" x="0px" y="0px"
	 viewBox="0 0 44 44" style="enable-background:new 0 0 44 44;" xml:space="preserve">
<style type="text/css">
	.st0{fill:#AA0601;}
</style>
<g>
	<g>
		<polygon class="st0" points="36,16.1 38.5,10.6 44,8.2 38.5,5.7 36,0.2 33.5,5.7 28,8.2 33.5,10.6 		"/>
		<polygon class="st0" points="36,27.9 33.5,33.4 28,35.8 33.5,38.3 36,43.8 38.5,38.3 44,35.8 38.5,33.4 		"/>
		<path class="st0" d="M21,17.1L16,6.2l-5,10.9L0,22l11,4.9l5,10.9l5-10.9L32,22L21,17.1z M18,24l-2,4.3L14,24l-4.4-2l4.4-2l2-4.3
			l2,4.3l4.4,2L18,24z"/>
	</g>
</g>
</svg>
